# xmcd CD database file
#
# Track frame offsets:
#	150
#	12770
#	28070
#	40332
#	56470
#	91420
#	99272
#	114807
#	184387
#	204757
#	215692
#	236620
#	253257
#
# Disc length: 3469 seconds
#
# Revision: 0
# Processed by: cddbd v1.5.2PL0 Copyright (c) Steve Scherf et al.
# Submitted via: CDex 1.70beta2
#
DISCID=a80d8b0d
DTITLE=永田佐知子 - 波紋音
DYEAR=2004
DGENRE=New Age
TTITLE0=01 朝の波紋音
TTITLE1=02 鳥たちの目覚め
TTITLE2=03 万華鏡 1
TTITLE3=04 エレジー
TTITLE4=05 万華鏡 2
TTITLE5=06 夕刻の波紋音
TTITLE6=07 遥拝
TTITLE7=08 母なる波紋音
TTITLE8=09 万華鏡 3
TTITLE9=10 夜半の波紋音
TTITLE10=11 大地胎動
TTITLE11=12 いのちのざわめき
TTITLE12=13 奉納の音
EXTD=YEAR: 2004
EXTT0=
EXTT1=
EXTT2=
EXTT3=
EXTT4=
EXTT5=
EXTT6=
EXTT7=
EXTT8=
EXTT9=
EXTT10=
EXTT11=
EXTT12=
PLAYORDER=
